<svg width="130" height="130" viewBox="0 0 130 130" fill="none" xmlns="http://www.w3.org/2000/svg">
<path fill-rule="evenodd" clip-rule="evenodd" d="M121.875 65.0001C121.875 96.4113 96.4112 121.875 65 121.875C33.5887 121.875 8.125 96.4113 8.125 65.0001C8.125 33.5889 33.5887 8.12499 65 8.12499C96.4112 8.12499 121.875 33.5889 121.875 65.0001ZM130 65.0001C130 100.899 100.899 130 65 130C29.1013 130 0 100.899 0 65.0001C0 29.1014 29.1013 0 65 0C100.899 0 130 29.1014 130 65.0001ZM64.2777 88.2814L96.7777 51.7198L90.0973 45.782L60.7458 78.8012L39.7223 57.7786L33.4027 64.0982L57.7777 88.4724L61.1292 91.8231L64.2777 88.2814Z" fill="#95D5B2"/>
</svg>
